<svg width="10" height="10" viewBox="0 0 10 10" fill="none" xmlns="http://www.w3.org/2000/svg">
<path d="M0.949444 0.383759C0.793235 0.227549 0.539969 0.227549 0.383759 0.383759C0.227549 0.539969 0.227549 0.793235 0.383759 0.949444L4.43432 5L0.38389 9.05043C0.22768 9.20664 0.22768 9.4599 0.38389 9.61611C0.540099 9.77232 0.793365 9.77232 0.949574 9.61611L5 5.56569L9.05043 9.61611C9.20663 9.77232 9.4599 9.77232 9.61611 9.61611C9.77232 9.4599 9.77232 9.20664 9.61611 9.05043L5.56569 5L9.61624 0.949444C9.77245 0.793235 9.77245 0.539969 9.61624 0.383759C9.46003 0.227549 9.20677 0.227549 9.05056 0.383759L5 4.43432L0.949444 0.383759Z" fill="#5B5C5B"/>
</svg>
