<svg width="5" height="9" viewBox="0 0 5 9" fill="none" xmlns="http://www.w3.org/2000/svg">
<path d="M0.451438 4.60002C0.37592 4.52916 0.333496 4.43307 0.333496 4.33287C0.333496 4.23268 0.37592 4.13658 0.451438 4.06572L4.31294 0.443509C4.36927 0.390832 4.44097 0.354978 4.51899 0.340467C4.59702 0.325956 4.67787 0.333437 4.75137 0.361968C4.82487 0.390499 4.88771 0.438803 4.93199 0.500788C4.97627 0.562774 4.99999 0.635669 5.00016 0.710282L5.00016 7.95471C5.0003 8.02954 4.97676 8.10273 4.9325 8.16499C4.88825 8.22726 4.82528 8.2758 4.75159 8.30445C4.67789 8.33311 4.59679 8.34059 4.51855 8.32595C4.44031 8.31132 4.36847 8.27522 4.31213 8.22224L0.451438 4.60002Z" fill="#5B5C5B"/>
</svg>
