<svg width="13" height="13" viewBox="0 0 13 13" fill="none" xmlns="http://www.w3.org/2000/svg">
<path d="M7.86654 0.733252C7.86654 0.512338 8.04562 0.333252 8.26654 0.333252H11.2665C12.0397 0.333252 12.6665 0.960053 12.6665 1.73325V4.73325C12.6665 4.95417 12.4874 5.13325 12.2665 5.13325C12.0456 5.13325 11.8665 4.95417 11.8665 4.73325V1.73325C11.8665 1.72204 11.8662 1.71091 11.8656 1.69985L6.28278 7.2827C6.12657 7.43891 5.8733 7.43891 5.71709 7.2827C5.56088 7.12649 5.56088 6.87322 5.71709 6.71701L11.2999 1.13417C11.2889 1.13356 11.2777 1.13325 11.2665 1.13325H8.26654C8.04562 1.13325 7.86654 0.954166 7.86654 0.733252Z" fill="#5B5C5B"/>
<path d="M2 1.79992C1.33726 1.79992 0.8 2.33718 0.8 2.99992V10.9999C0.8 11.6627 1.33726 12.1999 2 12.1999H10C10.6627 12.1999 11.2 11.6627 11.2 10.9999V7.66652C11.2 7.44561 11.3791 7.26652 11.6 7.26652C11.8209 7.26652 12 7.44561 12 7.66652V10.9999C12 12.1045 11.1046 12.9999 10 12.9999H2C0.895431 12.9999 0 12.1045 0 10.9999V2.99992C0 1.89535 0.89543 0.999919 2 0.999919H5.33333C5.55425 0.999919 5.73333 1.179 5.73333 1.39992C5.73333 1.62083 5.55425 1.79992 5.33333 1.79992H2Z" fill="#5B5C5B"/>
</svg>
