<svg width="5" height="8" viewBox="0 0 5 8" fill="none" xmlns="http://www.w3.org/2000/svg">
<path d="M4.54856 3.73323C4.62408 3.80409 4.6665 3.90018 4.6665 4.00038C4.6665 4.10057 4.62408 4.19667 4.54856 4.26753L0.687061 7.88974C0.630728 7.94242 0.559031 7.97827 0.481008 7.99278C0.402984 8.0073 0.322127 7.99981 0.24863 7.97128C0.175132 7.94275 0.112284 7.89445 0.0680094 7.83246C0.0237341 7.77048 1.33514e-05 7.69758 -0.000162125 7.62297L-0.000162125 0.378541C-0.000304699 0.303708 0.023243 0.230521 0.0674963 0.168257C0.11175 0.105993 0.174716 0.0574567 0.248412 0.0288012C0.322107 0.000145825 0.403214 -0.00733823 0.481451 0.00729783C0.559686 0.0219339 0.631527 0.058031 0.687867 0.111013L4.54856 3.73323Z" fill="#5B5C5B"/>
</svg>
